<mxfile host="app.diagrams.net" agent="Mozilla/5.0 (Windows NT 10.0; Win64; x64) AppleWebKit/537.36 (KHTML, like Gecko) Chrome/136.0.0.0 Safari/537.36" version="27.0.4">
  <diagram id="C5RBs43oDa-KdzZeNtuy" name="Page-1">
    <mxGraphModel dx="1426" dy="743" grid="1" gridSize="10" guides="1" tooltips="1" connect="1" arrows="1" fold="1" page="1" pageScale="1" pageWidth="827" pageHeight="1169" math="0" shadow="0">
      <root>
        <mxCell id="WIyWlLk6GJQsqaUBKTNV-0" />
        <mxCell id="WIyWlLk6GJQsqaUBKTNV-1" parent="WIyWlLk6GJQsqaUBKTNV-0" />
        <mxCell id="WIyWlLk6GJQsqaUBKTNV-2" value="" style="rounded=0;html=1;jettySize=auto;orthogonalLoop=1;fontSize=11;endArrow=classic;endFill=1;endSize=8;strokeWidth=1;shadow=0;labelBackgroundColor=none;edgeStyle=orthogonalEdgeStyle;" parent="WIyWlLk6GJQsqaUBKTNV-1" source="WIyWlLk6GJQsqaUBKTNV-3" edge="1">
          <mxGeometry relative="1" as="geometry">
            <mxPoint x="220" y="170" as="targetPoint" />
          </mxGeometry>
        </mxCell>
        <mxCell id="WIyWlLk6GJQsqaUBKTNV-3" value="Temperature Reading Received (Dogwood)" style="rounded=1;whiteSpace=wrap;html=1;fontSize=12;glass=0;strokeWidth=1;shadow=0;" parent="WIyWlLk6GJQsqaUBKTNV-1" vertex="1">
          <mxGeometry x="160" y="80" width="120" height="40" as="geometry" />
        </mxCell>
        <mxCell id="x_XZE3MSl6XGTZ9L1Ujs-2" style="edgeStyle=orthogonalEdgeStyle;rounded=0;orthogonalLoop=1;jettySize=auto;html=1;" edge="1" parent="WIyWlLk6GJQsqaUBKTNV-1" source="WIyWlLk6GJQsqaUBKTNV-7" target="x_XZE3MSl6XGTZ9L1Ujs-0">
          <mxGeometry relative="1" as="geometry" />
        </mxCell>
        <mxCell id="WIyWlLk6GJQsqaUBKTNV-7" value="Insert disruptive_event" style="rounded=1;whiteSpace=wrap;html=1;fontSize=12;glass=0;strokeWidth=1;shadow=0;" parent="WIyWlLk6GJQsqaUBKTNV-1" vertex="1">
          <mxGeometry x="160" y="170" width="120" height="40" as="geometry" />
        </mxCell>
        <mxCell id="x_XZE3MSl6XGTZ9L1Ujs-4" style="edgeStyle=orthogonalEdgeStyle;rounded=0;orthogonalLoop=1;jettySize=auto;html=1;" edge="1" parent="WIyWlLk6GJQsqaUBKTNV-1" source="x_XZE3MSl6XGTZ9L1Ujs-0" target="x_XZE3MSl6XGTZ9L1Ujs-3">
          <mxGeometry relative="1" as="geometry" />
        </mxCell>
        <mxCell id="x_XZE3MSl6XGTZ9L1Ujs-0" value="Get last 100 temperature events" style="rounded=1;whiteSpace=wrap;html=1;fontSize=12;glass=0;strokeWidth=1;shadow=0;" vertex="1" parent="WIyWlLk6GJQsqaUBKTNV-1">
          <mxGeometry x="160" y="260" width="120" height="40" as="geometry" />
        </mxCell>
        <mxCell id="x_XZE3MSl6XGTZ9L1Ujs-6" style="edgeStyle=orthogonalEdgeStyle;rounded=0;orthogonalLoop=1;jettySize=auto;html=1;" edge="1" parent="WIyWlLk6GJQsqaUBKTNV-1" source="x_XZE3MSl6XGTZ9L1Ujs-3" target="x_XZE3MSl6XGTZ9L1Ujs-5">
          <mxGeometry relative="1" as="geometry" />
        </mxCell>
        <mxCell id="x_XZE3MSl6XGTZ9L1Ujs-3" value="Get average temp over last 100 events" style="rounded=1;whiteSpace=wrap;html=1;fontSize=12;glass=0;strokeWidth=1;shadow=0;" vertex="1" parent="WIyWlLk6GJQsqaUBKTNV-1">
          <mxGeometry x="160" y="340" width="120" height="40" as="geometry" />
        </mxCell>
        <mxCell id="x_XZE3MSl6XGTZ9L1Ujs-8" style="edgeStyle=orthogonalEdgeStyle;rounded=0;orthogonalLoop=1;jettySize=auto;html=1;" edge="1" parent="WIyWlLk6GJQsqaUBKTNV-1" source="x_XZE3MSl6XGTZ9L1Ujs-5" target="x_XZE3MSl6XGTZ9L1Ujs-7">
          <mxGeometry relative="1" as="geometry" />
        </mxCell>
        <mxCell id="x_XZE3MSl6XGTZ9L1Ujs-9" value="No" style="edgeLabel;html=1;align=center;verticalAlign=middle;resizable=0;points=[];" vertex="1" connectable="0" parent="x_XZE3MSl6XGTZ9L1Ujs-8">
          <mxGeometry x="-0.28" relative="1" as="geometry">
            <mxPoint x="14" y="-10" as="offset" />
          </mxGeometry>
        </mxCell>
        <mxCell id="x_XZE3MSl6XGTZ9L1Ujs-11" style="edgeStyle=orthogonalEdgeStyle;rounded=0;orthogonalLoop=1;jettySize=auto;html=1;" edge="1" parent="WIyWlLk6GJQsqaUBKTNV-1" source="x_XZE3MSl6XGTZ9L1Ujs-5" target="x_XZE3MSl6XGTZ9L1Ujs-10">
          <mxGeometry relative="1" as="geometry" />
        </mxCell>
        <mxCell id="x_XZE3MSl6XGTZ9L1Ujs-12" value="Yes" style="edgeLabel;html=1;align=center;verticalAlign=middle;resizable=0;points=[];" vertex="1" connectable="0" parent="x_XZE3MSl6XGTZ9L1Ujs-11">
          <mxGeometry x="-0.5" relative="1" as="geometry">
            <mxPoint x="10" y="15" as="offset" />
          </mxGeometry>
        </mxCell>
        <mxCell id="x_XZE3MSl6XGTZ9L1Ujs-5" value="Current temp &amp;gt; 10% above average?" style="rhombus;whiteSpace=wrap;html=1;" vertex="1" parent="WIyWlLk6GJQsqaUBKTNV-1">
          <mxGeometry x="150" y="430" width="140" height="140" as="geometry" />
        </mxCell>
        <mxCell id="x_XZE3MSl6XGTZ9L1Ujs-7" value="End" style="verticalLabelPosition=bottom;verticalAlign=top;html=1;shape=mxgraph.flowchart.or;" vertex="1" parent="WIyWlLk6GJQsqaUBKTNV-1">
          <mxGeometry x="390" y="465" width="70" height="70" as="geometry" />
        </mxCell>
        <mxCell id="x_XZE3MSl6XGTZ9L1Ujs-14" style="edgeStyle=orthogonalEdgeStyle;rounded=0;orthogonalLoop=1;jettySize=auto;html=1;" edge="1" parent="WIyWlLk6GJQsqaUBKTNV-1" source="x_XZE3MSl6XGTZ9L1Ujs-10" target="x_XZE3MSl6XGTZ9L1Ujs-13">
          <mxGeometry relative="1" as="geometry" />
        </mxCell>
        <mxCell id="x_XZE3MSl6XGTZ9L1Ujs-10" value="Insert derived_resident_event" style="rounded=1;whiteSpace=wrap;html=1;fontSize=12;glass=0;strokeWidth=1;shadow=0;" vertex="1" parent="WIyWlLk6GJQsqaUBKTNV-1">
          <mxGeometry x="150" y="630" width="140" height="50" as="geometry" />
        </mxCell>
        <mxCell id="x_XZE3MSl6XGTZ9L1Ujs-13" value="End" style="verticalLabelPosition=bottom;verticalAlign=top;html=1;shape=mxgraph.flowchart.or;" vertex="1" parent="WIyWlLk6GJQsqaUBKTNV-1">
          <mxGeometry x="185" y="740" width="70" height="70" as="geometry" />
        </mxCell>
      </root>
    </mxGraphModel>
  </diagram>
</mxfile>
